<?xml version="1.0" encoding="UTF-8" standalone="no"?>
<svg
   viewBox="0 0 1000 1000"
   width="100%"
   height="100%"
   version="1.1"
   id="svg16"
   sodipodi:docname="favicon.svg"
   inkscape:version="1.4.4 (dcaf3e7d9e, 2026-05-05)"
   xmlns:inkscape="http://www.inkscape.org/namespaces/inkscape"
   xmlns:sodipodi="http://sodipodi.sourceforge.net/DTD/sodipodi-0.dtd"
   xmlns:xlink="http://www.w3.org/1999/xlink"
   xmlns="http://www.w3.org/2000/svg"
   xmlns:svg="http://www.w3.org/2000/svg">
  <sodipodi:namedview
     id="namedview16"
     pagecolor="#ffffff"
     bordercolor="#666666"
     borderopacity="1.0"
     inkscape:showpageshadow="2"
     inkscape:pageopacity="0.0"
     inkscape:pagecheckerboard="0"
     inkscape:deskcolor="#d1d1d1"
     inkscape:zoom="1.024"
     inkscape:cx="156.73828"
     inkscape:cy="384.27734"
     inkscape:window-width="2540"
     inkscape:window-height="1060"
     inkscape:window-x="0"
     inkscape:window-y="0"
     inkscape:window-maximized="1"
     inkscape:current-layer="g8" />
  <defs
     id="defs2">
    <!-- Degradado nativo que va del cian al naranja -->
    <linearGradient
       id="neonGrad"
       x1="0%"
       y1="10%"
       x2="100%"
       y2="90%">
      <stop
         offset="0%"
         stop-color="#1de2ff"
         id="stop1" />
      <stop
         offset="100%"
         stop-color="#ff7528"
         id="stop2" />
    </linearGradient>
    <!-- Filtro para el efecto de resplandor sutil estilo neón -->
    <filter
       id="glow"
       x="-0.070318021"
       y="-0.070318021"
       width="1.140636"
       height="1.140636">
      <feGaussianBlur
         stdDeviation="12"
         result="blur"
         id="feGaussianBlur2" />
      <feComposite
         in="SourceGraphic"
         in2="blur"
         operator="over"
         id="feComposite2" />
    </filter>
    <linearGradient
       inkscape:collect="always"
       xlink:href="#neonGrad"
       id="linearGradient16"
       x1="671.966"
       y1="255.57365"
       x2="942.67613"
       y2="472.14174"
       gradientTransform="matrix(1.0486585,0,0,1.9802086,-216.15896,-223.44381)"
       gradientUnits="userSpaceOnUse" />
    <linearGradient
       inkscape:collect="always"
       xlink:href="#neonGrad"
       id="linearGradient17"
       x1="418.06051"
       y1="406.91051"
       x2="477.53377"
       y2="454.48912"
       gradientTransform="matrix(0.97100611,0,0,1.7516341,-165.60381,-159.17659)"
       gradientUnits="userSpaceOnUse" />
    <linearGradient
       inkscape:collect="always"
       xlink:href="#neonGrad"
       id="linearGradient18"
       x1="300.57779"
       y1="842.44941"
       x2="360.05106"
       y2="890.02802"
       gradientTransform="matrix(1.7486179,0,0,1.0490767,-173.33388,-178.7301)"
       gradientUnits="userSpaceOnUse" />
    <linearGradient
       inkscape:collect="always"
       xlink:href="#neonGrad"
       id="linearGradient19"
       x1="418.06051"
       y1="306.52512"
       x2="477.53377"
       y2="354.10373"
       gradientTransform="matrix(0.93786994,0,0,2.2035974,-160.54632,-336.20921)"
       gradientUnits="userSpaceOnUse" />
  </defs>
  <!-- Fondo oscuro con bordes redondeados (estilo icono de app) -->
  <rect
     width="1000"
     height="1000"
     rx="220"
     fill="#1d2028"
     id="rect2" />
  <!-- GRUPO 1: Geometrías de fondo (engranajes, aros y líneas) -->
  <g
     filter="url(#glow)"
     stroke="url(#neonGrad)"
     stroke-width="22"
     stroke-linecap="round"
     stroke-linejoin="round"
     fill="none"
     id="g8">
    <!-- Perfil del engranaje exterior con esquinas suaves -->
    <path
       d="m 500,500 h 255 m -255,0 180.31,180.31 M 500,500 V 755 M 500,500 319.69,680.31 M 500,500 H 245 m 255,0 V 245 m 0,255 180.31,-180.31"
       id="path8"
       sodipodi:nodetypes="cccccccccccccc" />
    <path
       d="M 837.09 455.62 A 340 340 0 0 1 837.09 544.38 L 895.09 609.57 A 410 410 0 0 1 856.85 701.89 L 769.74 706.98 A 340 340 0 0 1 706.98 769.74 L 701.89 856.85 A 410 410 0 0 1 609.57 895.09 L 544.38 837.09 A 340 340 0 0 1 455.62 837.09 L 390.43 895.09 A 410 410 0 0 1 298.11 856.85 L 293.02 769.74 A 340 340 0 0 1 230.26 706.98 L 143.15 701.89 A 410 410 0 0 1 104.91 609.57 L 162.91 544.38 A 340 340 0 0 1 162.91 455.62 L 104.91 390.43 A 410 410 0 0 1 143.15 298.11 L 230.26 293.02 A 340 340 0 0 1 293.02 230.26 L 298.11 143.15 A 410 410 0 0 1 390.43 104.91 L 455.62 162.91 A 340 340 0 0 1 544.38 162.91 L 609.57 104.91 A 410 410 0 0 1 701.89 143.15 L 706.98 230.26 A 340 340 0 0 1 769.74 293.02 L 856.85 298.11 A 410 410 0 0 1 895.09 390.43 L 837.09 455.62 Z"
       id="path2" />
    <!-- Anillo interior (Mitad derecha continua) -->
    <path
       d="m 504.35517,244.89036 a 252.17995,252.17995 0 0 1 0,504.3599"
       id="path3"
       style="stroke:url(#linearGradient16);stroke-width:31.7026" />
    <!-- Anillo interior (Mitad izquierda discontinua con huecos exactos) -->
    <path
       d="M 441.6199,746.05302 A 232.87655,241.24178 0 0 1 366.89979,713.98854"
       id="path4"
       style="stroke:url(#linearGradient18);stroke-width:29.7971" />
    <path
       d="M 284.0491,632.67637 A 223.28895,233.27822 0 0 1 254.37082,557.82739"
       id="path5"
       style="stroke:url(#linearGradient17);stroke-width:28.6916" />
    <path
       d="M 251.93232,438.75175 C 271.05013,351.61871 328.53921,270.94674 439.3933,250.62733"
       id="path6"
       style="stroke:url(#linearGradient19);stroke-width:31.6272"
       sodipodi:nodetypes="cc" />
    <!-- Radios de interconexión central -->
  </g>
  <!-- GRUPO 2: Nodos superiores con relleno sólido -->
  <!-- Al rellenarse con el color del fondo, cortan visualmente las líneas inferiores creando uniones perfectas -->
  <g
     filter="url(#glow)"
     stroke="url(#neonGrad)"
     stroke-width="22"
     fill="#1d2028"
     id="g16">
    <!-- Nodos perimetrales -->
    <circle
       cx="755.00"
       cy="500.00"
       r="28"
       id="circle8" />
    <circle
       cx="500.00"
       cy="755.00"
       r="28"
       id="circle10" />
    <circle
       cx="319.69"
       cy="680.31"
       r="28"
       id="circle11" />
    <circle
       cx="245.00"
       cy="500.00"
       r="28"
       id="circle12" />
    <circle
       cx="500.00"
       cy="245.00"
       r="28"
       id="circle14" />
    <circle
       cx="680.31"
       cy="319.69"
       r="28"
       id="circle15" />
    <!-- Núcleo central -->
    <circle
       cx="500"
       cy="500"
       r="50"
       id="circle16" />
  </g>
</svg>
